 <svg  version="1.0" xmlns="http://www.w3.org/2000/svg"  width="300.000000pt" height="244.000000pt" viewBox="0 0 300.000000 244.000000"  preserveAspectRatio="xMidYMid meet">  <g transform="translate(0.000000,244.000000) scale(0.050000,-0.050000)" fill="#ffffff" stroke="none"> <path d="M3250 4678 c-143 -18 -314 -44 -380 -58 -66 -14 -138 -29 -160 -32 -49 -8 -199 -57 -360 -118 -66 -25 -156 -58 -200 -73 -44 -15 -84 -31 -90 -37 -5 -6 -100 -55 -210 -110 -110 -55 -220 -117 -244 -138 -24 -20 -62 -47 -84 -60 -109 -60 -326 -223 -438 -328 -68 -64 -129 -114 -134 -111 -6 4 -6 2 -2 -5 5 -6 -32 -53 -82 -105 -50 -51 -128 -142 -173 -203 -46 -60 -90 -116 -100 -122 -9 -7 -13 -18 -10 -25 4 -6 -6 -28 -23 -47 -16 -20 -48 -72 -70 -116 -22 -44 -53 -97 -70 -117 -16 -21 -27 -41 -23 -46 3 -4 -16 -69 -43 -143 -107 -294 -120 -365 -125 -653 -3 -153 2 -297 11 -320 8 -22 27 -90 41 -151 83 -361 411 -818 711 -992 54 -31 105 -68 114 -82 9 -14 25 -26 37 -26 11 0 86 -32 166 -70 80 -39 156 -70 168 -70 13 0 23 -10 23 -21 0 -12 7 -17 16 -12 8 6 91 -8 183 -29 260 -61 430 -80 711 -80 251 -1 392 13 730 71 107 19 442 112 510 142 33 14 140 59 237 99 98 40 210 92 250 114 175 98 259 149 345 210 51 36 103 66 115 66 13 0 23 9 23 20 0 11 7 18 15 15 23 -7 230 170 415 355 200 200 236 243 352 425 23 36 51 65 61 65 11 0 14 8 8 18 -6 10 9 44 34 75 43 54 72 107 113 212 9 25 27 70 39 101 120 298 162 718 106 1055 -21 121 -163 493 -199 518 -9 6 -37 47 -64 91 -26 44 -61 95 -78 113 -18 18 -72 77 -122 130 -49 53 -96 95 -104 92 -7 -2 -38 25 -68 60 -29 36 -59 64 -66 63 -7 -1 -48 21 -92 49 -219 139 -442 232 -690 287 -203 44 -210 46 -440 65 -270 23 -327 22 -590 -11z m940 -66 c339 -76 626 -200 858 -369 76 -56 148 -96 160 -89 12 7 15 5 8 -4 -8 -8 30 -65 85 -124 1272 -1393 -276 -3615 -2652 -3809 -2050 -167 -3112 1643 -1853 3158 48 58 97 99 109 92 12 -7 15 -4 8 8 -16 26 259 290 450 430 811 598 1993 893 2827 707z"/> <path d="M3079 4589 c-273 -42 -717 -165 -768 -211 -33 -31 18 -20 212 44 195 64 602 158 686 158 27 0 54 9 61 20 7 11 5 19 -4 18 -9 -1 -93 -14 -187 -29z"/> <path d="M3411 4582 c-6 -10 -28 -14 -48 -9 -20 6 -67 1 -105 -10 -66 -19 -66 -19 -12 -21 71 -2 67 -59 -6 -96 -47 -24 -47 -25 -7 -26 28 0 58 25 86 73 23 39 48 67 54 61 6 -6 -3 -32 -21 -57 -47 -68 -41 -77 53 -74 74 3 76 4 20 11 -74 10 -78 19 -32 84 25 36 36 40 49 19 13 -20 17 -20 18 -2 0 38 189 33 229 -7 94 -93 75 -134 -49 -105 -98 22 -167 21 -110 -2 57 -23 276 -62 287 -51 5 5 -24 59 -64 120 l-73 110 -129 0 c-71 0 -134 -8 -140 -18z"/> <path d="M3743 4543 c26 -32 62 -86 81 -120 33 -61 39 -63 165 -63 165 0 173 30 9 35 -127 3 -136 8 -205 126 -30 50 -29 51 23 47 130 -11 366 -62 454 -100 l60 -25 -70 -29 c-38 -16 -83 -34 -100 -40 -20 -7 -14 -11 15 -12 25 -1 61 7 80 18 19 11 62 30 95 42 l60 23 -60 19 c-33 11 -89 33 -125 49 -92 41 -317 86 -432 87 l-97 0 47 -57z"/> <path d="M4290 4519 c90 -33 191 -57 230 -54 56 4 31 16 -132 60 -260 71 -301 68 -98 -6z"/> <path d="M2945 4513 c-58 -11 -105 -28 -105 -37 0 -9 20 -12 45 -6 244 57 278 66 225 65 -33 -1 -107 -10 -165 -22z"/> <path d="M2693 4446 c-53 -16 -92 -33 -87 -39 13 -13 193 35 206 55 13 22 1 21 -119 -16z"/> <path d="M2994 4420 c-63 -8 -122 -22 -130 -30 -8 -9 16 -10 54 -3 37 7 111 13 166 13 60 0 94 8 86 20 -7 11 -23 19 -36 17 -13 -1 -76 -9 -140 -17z"/> <path d="M4527 4416 c21 -15 79 -57 130 -96 89 -67 323 -170 323 -141 0 38 -148 180 -215 207 -106 42 -290 65 -238 30z m304 -108 c60 -46 89 -88 60 -88 -21 0 -203 107 -231 135 -53 53 92 13 171 -47z"/> <path d="M4345 4395 c-96 -31 -81 -43 80 -70 80 -13 168 -30 195 -37 34 -8 16 11 -54 60 -112 77 -121 79 -221 47z m154 -52 c-46 -15 -133 20 -89 36 22 8 56 5 75 -7 20 -12 26 -25 14 -29z"/> <path d="M2435 4365 c-93 -31 -109 -51 -79 -99 11 -17 66 -8 212 35 108 33 216 60 240 61 23 0 30 6 16 11 -30 13 -198 -23 -320 -68 -60 -22 -92 -25 -107 -10 -14 14 1 28 51 44 39 13 77 32 83 42 6 11 9 18 5 17 -3 -1 -49 -16 -101 -33z"/> <path d="M3130 4380 c-90 -12 -93 -14 -26 -17 96 -4 115 -36 31 -52 -58 -11 -343 -82 -413 -104 -15 -4 -23 -13 -17 -19 7 -6 78 8 158 32 81 24 196 52 256 63 61 10 117 30 125 43 20 31 20 75 1 71 -8 -2 -60 -9 -115 -17z"/> <path d="M3281 4361 c-23 -43 -23 -43 133 -29 214 20 291 44 146 47 -60 1 -143 7 -183 14 -61 10 -77 5 -96 -32z"/> <path d="M2010 4253 c-247 -120 -704 -406 -683 -427 6 -5 52 19 103 54 51 35 98 59 103 53 6 -5 -28 -34 -75 -64 l-86 -54 74 -30 c78 -31 174 1 174 59 0 12 -17 7 -39 -13 -39 -35 -112 -36 -110 -1 1 28 309 216 509 311 273 130 289 137 296 129 9 -9 -26 -75 -38 -71 -4 1 -39 -9 -78 -23 -38 -13 -77 -23 -86 -20 -10 3 -12 -4 -5 -14 6 -11 -9 -25 -34 -32 -59 -18 -321 -170 -340 -198 -8 -13 -15 -14 -15 -2 -1 21 -39 -31 -40 -53 0 -7 65 29 145 82 154 100 336 199 460 249 76 30 100 84 46 104 -16 6 -54 -2 -85 -19 -31 -16 -137 -67 -236 -113 -99 -46 -233 -115 -297 -153 -65 -38 -122 -65 -127 -60 -22 22 644 372 709 373 14 0 25 14 25 30 0 38 31 49 -270 -97z"/> <path d="M2706 4310 c-102 -26 -201 -57 -220 -68 -48 -28 -3 -28 68 0 31 12 151 43 266 68 126 28 182 47 140 47 -38 1 -153 -20 -254 -47z"/> <path d="M3640 4322 c0 -9 37 -18 82 -18 55 -1 91 -14 109 -38 32 -42 39 -206 9 -206 -11 0 -18 -10 -15 -22 14 -63 -91 -97 -205 -67 -60 17 -168 37 -240 45 l-130 15 3 97 c5 125 11 130 210 163 l167 28 -148 -10 c-227 -15 -237 -20 -252 -116 -7 -46 -17 -106 -22 -135 -9 -49 -6 -51 97 -55 59 -3 160 -19 226 -36 240 -62 252 -61 314 39 64 103 64 97 24 230 l-31 104 -99 0 c-54 0 -99 -8 -99 -18z"/> <path d="M3887 4327 c-16 -6 -14 -36 8 -106 l32 -98 59 60 c67 67 68 63 -26 103 -42 19 -56 31 -34 32 20 1 61 -11 91 -26 49 -26 60 -25 104 9 l49 38 -130 -1 c-71 -1 -140 -5 -153 -11z"/> <path d="M4142 4283 c-47 -37 -48 -39 -8 -51 22 -7 57 -31 76 -53 38 -41 70 -51 70 -21 0 10 -28 36 -62 57 -98 62 -9 96 167 63 155 -28 178 -34 253 -56 73 -22 222 -166 222 -214 0 -15 9 -28 20 -28 29 0 25 -55 -5 -67 -14 -5 -5 -11 20 -11 55 -2 55 1 7 94 -90 174 -315 338 -378 275 -5 -6 -20 -2 -32 7 -51 42 -299 46 -350 5z"/> <path d="M3150 4267 c-145 -32 -564 -156 -580 -172 -22 -23 -16 -21 200 44 169 51 394 103 404 93 4 -4 0 -51 -9 -104 l-16 -98 -109 -14 c-164 -21 -366 -59 -400 -76 -57 -28 -160 -39 -160 -18 0 11 9 15 20 8 11 -7 20 -3 20 8 0 30 -40 48 -41 18 -1 -14 -10 -4 -21 22 -10 26 -14 53 -8 58 5 6 10 0 10 -13 0 -12 10 -23 21 -23 12 0 16 8 10 19 -7 10 4 28 24 39 47 28 -5 29 -56 1 -47 -25 -47 -34 -9 -126 l30 -71 95 30 c144 46 446 107 527 108 71 0 73 2 85 90 7 49 18 112 25 140 7 27 5 49 -5 48 -9 -2 -35 -7 -57 -11z"/> <path d="M4996 4201 c21 -34 82 -90 136 -124 109 -69 91 -37 -59 101 -101 94 -124 100 -77 23z"/> <path d="M2374 4208 c-7 -7 1 -26 18 -42 17 -18 25 -48 17 -73 -8 -30 -6 -35 7 -16 10 14 24 26 31 25 47 -7 74 1 64 17 -7 11 -27 14 -45 7 -23 -9 -28 -5 -16 14 11 18 9 21 -10 10 -20 -12 -23 -5 -15 27 11 41 -21 60 -51 31z"/> <path d="M4002 4153 c-83 -87 -85 -201 -2 -207 28 -2 35 1 17 6 -93 28 -27 224 75 227 57 1 285 -216 250 -238 -18 -11 -9 -19 26 -26 69 -13 66 2 -22 104 -169 198 -251 229 -344 134z"/> <path d="M2275 4168 c-68 -36 -72 -53 -7 -29 54 21 72 10 72 -40 0 -20 -26 -44 -65 -58 -36 -14 -105 -44 -155 -67 -49 -24 -97 -41 -105 -38 -8 2 -15 -5 -15 -16 0 -11 -8 -20 -18 -20 -10 0 -74 -31 -142 -70 -68 -38 -133 -64 -145 -57 -12 7 -15 4 -8 -9 19 -29 -26 -53 -51 -28 -15 15 -4 37 36 74 58 54 58 54 -27 -3 -97 -66 -99 -69 -44 -103 33 -21 48 -20 84 5 63 45 94 37 35 -8 l-49 -38 49 -39 c28 -22 72 -57 100 -80 l49 -40 77 60 c42 34 81 56 87 50 6 -6 -21 -32 -61 -58 -120 -78 -33 -221 90 -148 33 20 65 31 71 25 6 -5 -18 -25 -53 -43 -59 -30 -61 -35 -32 -68 51 -56 37 -74 -18 -22 -44 41 -54 43 -85 18 -55 -44 -128 -82 -138 -71 -5 5 27 30 72 55 95 53 96 57 31 118 l-51 48 -89 -88 c-50 -49 -90 -100 -90 -115 0 -15 -8 -23 -17 -17 -10 6 -43 -29 -74 -78 -31 -49 -60 -86 -63 -82 -21 20 46 120 172 255 l142 154 -87 71 c-83 69 -153 93 -153 53 0 -10 -13 -21 -29 -25 -16 -3 -102 -59 -190 -124 l-161 -118 71 -129 c39 -72 67 -134 62 -139 -5 -4 -38 44 -74 108 -36 64 -68 120 -72 124 -3 4 -20 -4 -37 -18 -45 -37 -58 -11 -22 44 32 49 7 276 -30 276 -59 0 -487 -558 -453 -591 3 -3 32 7 65 21 39 17 47 27 25 28 -19 1 -35 12 -35 23 0 12 10 15 23 7 15 -9 18 -5 9 9 -13 21 78 162 138 213 13 11 23 25 23 30 -3 22 75 97 91 87 9 -5 15 -3 12 7 -6 20 66 106 90 106 9 0 11 -8 5 -19 -6 -10 -3 -24 9 -31 26 -16 26 -130 0 -130 -11 0 -18 -7 -15 -15 3 -9 -15 -42 -40 -73 -25 -32 -45 -49 -46 -40 0 10 -10 2 -22 -19 -11 -20 -62 -63 -113 -95 -78 -49 -84 -58 -43 -57 30 0 92 40 158 99 124 110 141 114 82 17 -22 -37 -41 -73 -41 -80 0 -12 220 -46 300 -47 17 0 42 -11 56 -25 36 -34 83 -32 97 5 6 16 17 26 24 22 17 -11 166 99 152 112 -5 6 3 34 18 63 15 29 33 47 40 39 7 -7 13 -2 13 11 0 64 148 142 169 88 11 -28 -45 -90 -69 -75 -5 3 -46 -25 -90 -63 l-80 -70 70 32 c64 29 66 29 26 0 -24 -18 -69 -55 -100 -82 l-56 -51 60 31 c33 16 79 47 102 69 58 55 160 105 179 88 8 -8 9 -3 1 11 -30 51 34 23 100 -45 82 -86 83 -95 11 -154 -31 -25 -86 -89 -123 -141 -80 -114 -75 -113 -200 -25 -55 39 -107 71 -115 73 -53 8 -63 22 -43 60 20 39 20 39 -32 5 l-54 -35 57 -29 c123 -62 230 -128 221 -137 -5 -5 -70 23 -145 63 -178 94 -193 68 -57 -96 121 -146 132 -182 15 -53 -40 44 -77 75 -83 69 -6 -5 9 -31 33 -56 23 -26 43 -58 43 -71 0 -14 8 -21 17 -15 10 6 35 -8 55 -30 69 -77 -96 -152 -176 -80 -26 23 -24 219 4 252 19 23 20 38 4 54 -34 34 -53 -32 -54 -188 0 -154 11 -170 120 -182 80 -8 170 -37 235 -74 48 -28 49 71 2 124 -33 35 -35 35 -80 -7 -26 -24 -53 -37 -62 -29 -8 8 8 31 34 51 44 33 46 41 20 72 -27 33 -26 34 16 8 54 -34 98 1 171 138 54 100 177 261 201 262 9 1 -10 -33 -43 -74 -32 -41 -77 -105 -100 -143 l-41 -67 49 -52 c64 -69 62 -103 -2 -43 -59 55 -80 41 -96 -63 -11 -71 -7 -76 107 -156 166 -117 206 -87 98 73 -33 50 -57 95 -52 100 12 12 113 -122 113 -151 0 -40 29 -25 53 27 21 45 20 48 -17 28 -32 -17 -41 -14 -50 21 -6 22 -19 41 -28 41 -10 0 -18 11 -18 25 0 14 -18 37 -41 51 -22 14 -36 33 -29 43 6 10 -5 27 -23 38 -29 16 -16 30 81 93 63 40 119 70 124 65 4 -5 -38 -38 -93 -74 -56 -36 -97 -70 -92 -75 5 -5 58 23 116 62 130 88 167 90 208 10 31 -61 31 -64 -26 -135 -90 -114 -98 -139 -19 -65 40 38 67 77 60 88 -7 11 -2 14 10 7 45 -28 42 27 -7 125 -46 92 -55 100 -92 80 -22 -11 -45 -17 -50 -11 -6 5 9 20 32 32 48 26 30 84 -28 93 -32 5 -32 2 -2 -31 31 -34 27 -40 -73 -97 -92 -54 -175 -73 -95 -23 16 10 22 19 14 19 -8 0 1 19 20 42 63 78 111 117 128 106 20 -12 23 19 4 39 -8 7 -30 -2 -50 -20 -21 -18 -37 -26 -37 -17 0 8 16 27 35 41 33 24 32 29 -13 77 -27 29 -44 57 -37 64 6 6 27 -12 46 -41 26 -39 45 -49 76 -39 37 12 39 10 16 -18 -51 -62 67 -182 123 -125 16 16 33 26 37 23 4 -4 84 31 177 77 178 87 181 93 151 211 l-14 50 32 -50 31 -50 -11 50 c-9 43 0 55 65 85 l76 36 -70 -13 c-38 -7 -94 -25 -124 -40 -30 -16 -66 -28 -80 -29 -14 0 -44 -14 -65 -30 -37 -28 -35 -29 30 -16 38 7 63 6 55 -3 -8 -8 -1 -28 16 -45 55 -55 43 -65 -199 -176 -156 -71 -208 -68 -212 12 -1 14 112 99 133 100 9 0 43 22 75 49 52 42 54 47 15 37 -77 -20 -48 9 56 57 55 25 100 53 100 61 0 9 -36 -3 -80 -25 -44 -22 -80 -36 -80 -30 0 7 -20 -7 -44 -29 -24 -23 -55 -41 -70 -41 -14 0 -26 -8 -26 -17 0 -16 -87 -65 -131 -74 -43 -9 -117 128 -88 162 32 39 157 93 181 78 10 -7 23 2 30 18 6 17 40 41 75 54 34 13 52 27 38 33 -14 5 -25 24 -25 43 -1 28 -3 29 -20 3 -11 -16 -20 -22 -20 -12 0 10 -16 5 -35 -11 -41 -35 -291 -157 -320 -157 -98 0 -12 177 88 179 12 1 28 16 35 34 7 18 18 27 25 21 6 -7 68 19 136 56 90 49 143 67 189 61 57 -7 63 -4 53 35 -9 36 52 -74 74 -132 8 -22 75 5 75 29 0 11 -16 15 -36 8 -26 -8 -41 4 -56 45 -27 70 -2 96 112 122 85 19 128 42 80 42 -83 0 -266 -70 -276 -105 -7 -28 -14 -31 -25 -13 -19 30 -81 7 -287 -107 -76 -41 -142 -71 -147 -67 -12 12 183 122 310 176 103 42 123 62 87 85 -10 6 -23 -3 -29 -19 -7 -17 -35 -30 -62 -30 -28 0 -51 -7 -51 -15 0 -8 -47 -37 -104 -63 -57 -26 -127 -69 -155 -95 -28 -26 -62 -47 -76 -47 -14 0 -25 -10 -25 -21 0 -12 -8 -16 -18 -10 -10 6 -23 -3 -30 -20 -10 -26 -23 -23 -82 22 -86 66 -88 97 -11 129 33 13 71 38 85 55 22 26 14 25 -41 -3 -37 -19 -71 -30 -77 -25 -11 12 153 100 420 225 212 100 202 90 170 164 -25 59 -28 60 -81 32z m-515 -651 c0 -10 9 -14 20 -7 53 33 9 -37 -85 -136 -137 -145 -149 -159 -189 -243 -18 -39 -40 -71 -48 -71 -41 0 -78 28 -78 60 0 20 -7 40 -15 43 -8 4 -35 45 -59 92 l-44 85 44 43 c24 23 111 86 192 139 l149 96 56 -40 c32 -23 57 -50 57 -61z m528 -17 c-65 -33 -127 -59 -138 -59 -29 1 195 117 228 118 15 1 -25 -26 -90 -59z m119 -231 c-7 -17 -17 -26 -22 -20 -6 5 -37 -9 -69 -32 -32 -23 -62 -37 -68 -32 -9 9 131 112 156 114 8 0 9 -13 3 -30z m-1176 -45 c-6 -6 0 -23 13 -39 54 -65 38 -89 -51 -74 -101 16 -100 16 -84 67 23 70 71 107 104 80 15 -13 23 -28 18 -34z m372 -324 c11 0 13 -10 5 -23 -8 -13 -5 -18 6 -10 66 40 231 -111 177 -163 -25 -24 -38 -27 -45 -10 -5 13 -22 19 -37 13 -16 -6 -29 -3 -29 6 0 10 -20 40 -45 68 -120 134 -128 147 -88 132 20 -7 45 -13 56 -13z m401 -330 c67 -94 94 -170 48 -131 -14 11 -31 16 -36 10 -22 -22 -136 115 -136 163 0 76 54 58 124 -42z"/> <path d="M4864 4106 c38 -55 80 -128 95 -163 46 -112 119 -81 86 37 l-13 50 -11 -59 c-11 -59 -11 -59 -64 44 -54 102 -30 132 38 48 22 -27 25 -26 25 10 0 31 -25 51 -95 79 -52 21 -102 41 -112 45 -9 4 14 -37 51 -91z"/> <path d="M4292 4143 c-6 -9 12 -39 40 -65 28 -26 68 -76 90 -111 47 -76 175 -113 318 -91 82 12 76 14 -78 25 -163 11 -288 81 -251 141 5 8 -9 21 -31 28 -22 7 -40 25 -40 40 0 34 -33 57 -48 33z"/> <path d="M2017 4045 c-180 -99 -320 -196 -247 -172 22 8 67 34 100 58 33 24 121 74 195 111 74 37 135 74 135 83 0 21 9 25 -183 -80z"/> <path d="M5060 4052 c0 -18 9 -33 20 -34 41 -6 51 -10 103 -45 50 -33 87 -89 71 -106 -22 -22 -134 41 -134 75 0 55 -29 47 -33 -9 -2 -40 14 -53 100 -81 57 -19 115 -40 130 -46 20 -8 24 1 13 37 -27 91 -270 279 -270 209z"/> <path d="M2340 4015 c-275 -122 -420 -197 -420 -215 0 -25 67 5 125 56 19 16 35 25 35 19 0 -6 56 16 125 50 69 34 141 60 160 59 19 -1 35 11 35 27 0 16 -2 28 -5 28 -3 -1 -27 -12 -55 -24z"/> <path d="M3871 3996 c-17 -25 -31 -56 -31 -70 0 -15 -7 -26 -16 -26 -16 0 -76 -121 -123 -246 -11 -31 -25 -93 -31 -138 l-10 -81 93 12 c51 7 114 13 140 13 66 0 73 284 8 319 -27 15 -43 14 -53 -2 -8 -13 -5 -18 6 -11 35 22 69 -74 62 -177 l-6 -99 -95 -6 c-72 -5 -98 1 -107 25 -19 47 78 302 111 295 23 -5 23 0 -1 29 -25 31 -24 33 7 21 19 -7 35 -3 35 8 0 11 9 15 20 8 12 -7 16 -20 11 -29 -6 -9 3 -28 19 -41 26 -21 30 -15 30 38 0 49 -9 62 -40 62 -22 0 -40 9 -40 20 0 11 14 20 30 20 19 0 30 19 30 50 0 62 -9 63 -49 6z"/> <path d="M3030 3970 c-11 -4 -64 -13 -117 -20 -53 -7 -93 -17 -88 -22 6 -5 75 -2 154 8 157 19 193 -1 144 -79 -19 -29 -18 -37 5 -37 18 0 30 28 35 80 8 80 -36 103 -133 70z"/> <path d="M3193 3967 c-7 -8 -13 -40 -13 -71 0 -60 87 -66 180 -14 40 23 5 22 -75 -1 -64 -18 -100 35 -46 68 28 18 242 -12 229 -32 -6 -9 26 -17 71 -17 133 0 92 33 -70 58 -172 25 -256 28 -276 9z"/> <path d="M4110 3940 c30 -13 16 -18 -55 -19 l-95 -1 0 -91 c0 -58 10 -94 27 -101 16 -6 44 -40 64 -77 l35 -66 108 87 c59 49 143 106 187 128 43 23 79 49 79 58 0 21 -236 52 -255 34 -6 -7 19 -12 57 -12 131 -1 130 -29 -5 -120 -70 -48 -130 -94 -134 -103 -19 -50 -106 58 -133 166 -12 49 -8 53 63 64 176 26 228 38 238 55 6 10 -41 17 -105 17 -83 -1 -105 -7 -76 -19z"/> <path d="M3400 3900 c0 -11 13 -20 28 -20 16 0 32 -8 35 -17 4 -10 57 -11 117 -3 134 19 146 10 106 -80 -17 -38 -34 -83 -36 -100 -3 -16 -11 -46 -20 -65 -8 -21 -5 -35 8 -35 12 0 22 14 22 30 0 17 26 88 58 158 l57 127 -156 -9 c-96 -5 -160 0 -168 13 -17 27 -51 27 -51 1z"/> <path d="M4840 3810 c72 -27 133 -49 136 -50 4 0 4 20 0 45 -5 41 -18 45 -136 50 l-130 4 130 -49z"/> <path d="M5000 3824 c0 -20 13 -54 29 -75 28 -37 30 -34 30 36 1 54 -8 75 -29 75 -16 0 -30 -16 -30 -36z"/> <path d="M5372 3820 c7 -27 41 -74 76 -104 34 -30 53 -55 41 -55 -12 -1 -33 10 -47 24 -26 26 -22 -18 17 -208 16 -73 -36 -412 -79 -517 -16 -40 -11 -69 28 -146 l49 -95 49 65 c27 37 72 112 100 167 l51 102 -38 83 c-20 47 -61 116 -91 155 -29 38 -49 74 -44 80 17 17 111 -104 138 -178 63 -174 81 8 21 203 -21 66 -59 150 -85 187 -26 37 -46 76 -43 87 2 11 -32 61 -76 110 -67 74 -78 81 -67 40z m208 -341 c58 -113 77 -236 28 -185 -93 96 -114 130 -129 210 -28 152 15 142 101 -25z m19 -375 c14 -49 12 -82 -4 -112 -13 -23 -24 -48 -24 -55 -2 -24 -92 -137 -109 -137 -48 0 -64 115 -33 235 17 66 31 143 31 170 0 111 101 38 139 -101z"/> <path d="M3225 3824 c-40 -6 -45 -18 -45 -110 1 -181 9 -194 130 -194 58 0 143 -13 190 -30 116 -41 131 -38 136 24 4 51 3 52 -24 15 -25 -34 -37 -36 -95 -15 -37 12 -119 28 -182 36 l-115 13 0 88 c0 49 -2 95 -5 102 -5 13 20 28 105 64 l50 20 -50 -3 c-27 -2 -70 -6 -95 -10z"/> <path d="M4575 3817 c-58 -21 -66 -60 -35 -157 15 -43 17 -39 14 26 -3 96 26 115 152 101 127 -14 227 -56 255 -109 41 -77 -7 -358 -61 -358 -11 0 -20 -9 -20 -20 0 -49 57 -13 86 55 42 100 55 198 38 294 -20 113 -290 219 -429 168z"/> <path d="M5086 3774 c-2 -59 9 -72 93 -120 91 -51 163 -114 130 -114 -8 0 -43 21 -77 47 -146 110 -143 112 -190 -86 -23 -98 -42 -201 -42 -228 0 -28 -9 -56 -20 -63 -37 -23 -22 -67 19 -56 25 6 56 -7 85 -37 26 -26 63 -56 84 -68 21 -12 52 -42 69 -66 l30 -46 -72 37 c-39 20 -66 44 -60 54 6 10 1 12 -11 4 -12 -7 -58 9 -101 36 -43 27 -84 44 -91 38 -20 -21 -13 34 10 77 36 67 6 63 -37 -5 l-41 -64 139 -67 c76 -36 178 -93 227 -127 116 -80 129 -48 28 68 -45 50 -72 92 -61 92 11 0 47 -32 79 -72 38 -45 65 -63 73 -49 27 44 53 153 70 301 l18 150 -62 65 c-64 67 -57 92 8 32 46 -41 50 3 14 145 -24 95 -157 204 -157 128 0 -11 14 -20 31 -20 45 0 77 -39 103 -125 18 -62 17 -75 -6 -75 -15 0 -28 9 -28 20 0 11 -10 20 -22 20 -43 0 -198 128 -198 163 0 21 9 37 20 37 11 0 20 9 20 20 0 60 -72 15 -74 -46z m86 -189 c22 -19 53 -38 69 -42 134 -30 194 -256 120 -450 -11 -29 -14 -53 -7 -53 8 0 4 -10 -9 -23 -18 -18 -39 -8 -89 42 -36 35 -104 92 -151 126 -92 67 -95 85 -45 265 9 33 22 85 29 115 14 64 29 68 83 20z m-66 -427 c42 -35 72 -67 67 -72 -5 -5 -30 9 -56 32 -26 22 -65 54 -87 71 -22 16 -31 30 -20 30 12 1 55 -27 96 -61z"/> <path d="M1208 3738 c-19 -21 -27 -38 -17 -38 9 0 6 -11 -7 -24 -30 -30 -31 -129 -2 -147 15 -9 18 0 9 28 -28 89 180 239 244 175 14 -14 -160 -191 -223 -226 -21 -11 -32 -30 -25 -42 8 -12 76 40 160 123 163 159 162 176 -10 184 -71 4 -102 -4 -129 -33z"/> <path d="M4390 3742 c-134 -61 -288 -194 -277 -239 9 -34 234 -83 383 -83 26 0 32 157 11 285 -14 86 -12 86 -117 37z m100 -168 l0 -123 -80 7 c-91 9 -164 16 -215 19 -97 8 -16 108 173 215 104 59 122 42 122 -118z"/> <path d="M2510 3725 c-30 -23 -24 -93 10 -108 23 -10 18 -18 -20 -34 l-50 -20 55 -2 c41 -1 57 -13 67 -52 7 -28 17 -47 22 -41 6 5 -9 60 -32 121 -49 130 -53 162 -12 91 29 -50 41 -31 18 28 -13 35 -28 39 -58 17z"/> <path d="M1362 3557 c-196 -197 -196 -218 0 -67 81 63 172 127 204 143 55 28 56 31 21 58 -54 40 -48 43 -225 -134z"/> <path d="M2730 3681 c-101 -36 -107 -47 -83 -141 8 -32 1 -26 -18 17 -45 98 -55 67 -16 -48 28 -80 36 -90 49 -58 8 21 16 28 17 14 0 -14 15 -25 31 -25 38 0 38 19 0 48 -80 60 -61 149 38 174 51 12 98 31 104 40 14 24 -5 21 -122 -21z"/> <path d="M3964 3580 c-6 -132 2 -141 57 -75 42 50 52 106 16 83 -14 -9 -18 -5 -9 8 13 21 -26 104 -49 104 -6 0 -13 -54 -15 -120z"/> <path d="M3134 3573 c-7 -18 -44 -34 -88 -38 -72 -8 -71 -8 18 -12 98 -3 124 11 97 55 -12 20 -18 19 -27 -5z"/> <path d="M4540 3500 c0 -77 7 -100 31 -100 19 0 26 9 17 24 -9 13 -13 58 -11 100 3 42 -5 76 -16 76 -12 0 -21 -44 -21 -100z"/> <path d="M2784 3487 c-30 -23 -25 -25 33 -14 46 9 73 4 87 -15 16 -22 18 -21 9 6 -7 21 2 37 23 42 19 5 0 9 -42 8 -41 0 -91 -12 -110 -27z"/> <path d="M2980 3480 c-21 -14 -1 -18 70 -15 173 9 147 -81 -40 -137 -77 -22 -155 -48 -174 -56 -19 -9 -44 -10 -55 -3 -22 14 -30 -14 -10 -33 18 -18 419 119 417 143 -1 11 -3 44 -5 71 -3 54 -136 74 -203 30z"/> <path d="M3211 3435 c7 -36 15 -67 17 -68 1 -2 56 9 122 24 66 16 147 29 179 29 34 0 51 7 40 17 -29 27 -197 63 -289 63 l-83 0 14 -65z m223 17 c21 -20 0 -28 -93 -35 -75 -6 -91 -1 -97 31 -8 37 154 41 190 4z"/> <path d="M3770 3422 l-60 -12 83 -85 83 -85 30 88 c40 117 25 128 -136 94z m123 -39 c-4 -7 -13 -30 -20 -50 -12 -35 -16 -34 -52 10 -34 43 -35 48 -4 59 37 14 87 1 76 -19z"/> <path d="M3988 3390 c-45 -68 -86 -189 -87 -253 -1 -30 -12 -58 -26 -63 -14 -5 9 -16 50 -24 92 -18 127 6 155 107 58 211 -3 368 -92 233z m91 -75 c-2 -129 -41 -224 -95 -232 -63 -8 -57 134 10 242 61 98 86 95 85 -10z"/> <path d="M4139 3436 c0 -3 -3 -61 -7 -128 -4 -67 -18 -142 -30 -165 -28 -51 -11 -54 93 -14 41 16 93 33 115 37 24 6 13 10 -26 12 -37 1 -85 -8 -108 -20 -39 -21 -41 -19 -29 42 7 36 13 95 13 133 0 76 67 90 226 46 85 -24 96 -119 21 -173 -19 -14 -28 -32 -20 -40 20 -20 64 34 90 112 28 81 30 128 5 113 -9 -6 -43 -2 -75 8 -58 18 -267 47 -268 37z"/> <path d="M3463 3387 c-81 -14 -168 -32 -193 -41 l-45 -16 33 -109 33 -109 149 -24 c83 -13 167 -31 188 -39 33 -13 36 -10 23 23 -8 21 -21 106 -28 189 l-13 150 -147 -24z m133 -158 l6 -141 -126 18 c-176 26 -171 23 -194 107 -26 93 -12 110 114 138 187 42 193 38 200 -122z"/> <path d="M3648 3290 c22 -236 28 -250 112 -250 142 0 117 208 -39 320 -81 57 -84 53 -73 -70z m144 -54 c51 -99 17 -194 -60 -164 -34 13 -46 48 -58 182 -12 124 48 115 118 -18z"/> <path d="M4677 3369 c37 -16 82 -28 100 -27 45 2 -77 56 -127 56 -27 0 -19 -9 27 -29z"/> <path d="M4504 3290 c-32 -119 -29 -122 120 -137 70 -7 146 -15 171 -18 65 -7 147 115 88 130 -30 8 -36 1 -28 -28 18 -69 -45 -94 -162 -63 -56 14 -118 26 -137 26 -38 0 -43 21 -23 97 13 48 52 51 152 12 19 -7 35 -4 35 7 0 11 -25 24 -55 30 -30 6 -73 16 -96 23 -34 12 -44 0 -65 -79z"/> <path d="M3010 3279 c-99 -31 -196 -66 -215 -78 -19 -11 -44 -21 -55 -21 -12 0 -116 -45 -231 -100 l-210 -101 31 -59 c39 -76 48 -75 44 3 -4 56 4 66 61 81 36 9 65 26 65 36 0 10 16 13 35 6 19 -7 28 -5 20 4 -33 36 131 90 169 57 30 -28 32 -27 24 16 l-9 47 24 -47 c20 -37 19 -49 -2 -62 -14 -9 -21 -26 -14 -37 7 -11 -21 -34 -62 -52 -41 -17 -112 -53 -157 -80 -45 -26 -96 -51 -114 -55 -22 -5 -27 -16 -16 -33 12 -21 36 -13 107 34 50 34 137 83 194 110 57 26 94 54 82 61 -12 8 -16 23 -9 35 9 13 20 9 32 -12 13 -22 29 -27 52 -15 33 16 170 46 331 73 68 11 75 18 64 56 -8 24 -21 74 -31 111 -22 87 -6 86 -210 22z m198 -81 l13 -71 -191 -37 c-104 -21 -191 -47 -192 -59 -2 -28 -56 92 -57 127 -1 16 5 23 12 16 7 -8 26 -3 41 10 39 31 333 116 349 99 6 -7 18 -45 25 -85z"/> <path d="M622 3074 c-36 -57 -66 -113 -66 -124 1 -11 -11 -33 -25 -50 -68 -77 -111 -202 -111 -318 0 -208 63 -154 91 78 7 61 26 141 42 179 15 38 24 81 18 95 -5 14 -2 26 6 26 19 0 131 199 120 210 -5 4 -38 -39 -75 -96z m-132 -399 c-17 -127 -50 -174 -50 -70 0 67 34 175 55 175 5 0 2 -47 -5 -105z"/> <path d="M4229 3112 c-160 -50 -162 -63 -18 -89 74 -14 135 -22 137 -19 2 3 19 30 38 60 19 30 34 59 34 65 0 19 -107 9 -191 -17z m131 -42 c0 -34 -31 -44 -104 -34 -72 11 -62 50 16 65 68 14 88 7 88 -31z"/> <path d="M4413 3068 c-19 -40 -32 -75 -29 -77 3 -2 65 -25 136 -50 72 -25 155 -64 186 -86 31 -22 62 -33 70 -26 8 8 -2 23 -22 34 -19 11 -29 29 -22 40 8 14 -2 16 -29 8 -64 -20 -52 12 34 96 72 70 78 73 88 34 6 -22 4 -37 -5 -31 -9 5 -37 -8 -63 -29 -26 -22 -39 -40 -29 -40 11 -1 37 15 59 34 38 33 39 33 27 0 -7 -19 -4 -35 7 -35 10 0 19 12 19 28 0 15 15 39 34 55 30 24 32 23 19 -11 -11 -31 -9 -34 15 -14 27 23 137 -13 172 -56 6 -7 46 -30 90 -52 94 -47 98 -71 37 -185 -26 -47 -38 -85 -28 -85 16 0 121 185 121 212 0 27 -319 209 -380 217 -5 1 -20 8 -32 16 -46 29 -259 75 -348 75 -87 0 -95 -5 -127 -72z m310 15 c42 -16 41 -17 -20 -79 -72 -74 -75 -75 -188 -31 -110 43 -106 37 -66 99 36 54 144 59 274 11z"/> <path d="M943 3065 c-15 -5 -59 -45 -98 -88 -39 -43 -75 -73 -81 -67 -6 6 13 36 42 66 30 31 54 62 54 69 0 19 -124 -21 -149 -48 -15 -16 -14 -19 4 -9 61 35 61 -17 -2 -94 -89 -111 -112 -155 -56 -106 68 60 51 13 -47 -127 -98 -140 -100 -149 -68 -335 l22 -126 69 60 c39 34 120 90 181 124 61 35 116 79 121 99 5 20 16 33 24 28 7 -5 29 18 48 50 20 32 45 59 57 59 22 0 3 -30 -72 -115 -46 -53 -46 -53 101 -15 64 17 162 30 218 30 l103 0 -2 148 c-1 81 -9 144 -17 139 -8 -5 -15 -61 -15 -124 l0 -115 -155 -22 c-189 -28 -189 -27 -94 77 49 55 67 88 50 93 -15 5 12 46 71 106 53 54 88 98 77 97 -28 -1 -105 -74 -225 -213 -68 -79 -117 -120 -135 -113 -18 7 -29 -1 -29 -21 0 -18 -10 -32 -21 -32 -12 0 -16 -8 -10 -18 13 -21 -95 -117 -168 -149 -28 -13 -73 -43 -101 -68 l-50 -46 -13 46 c-31 107 -18 235 32 310 153 231 298 412 315 394 6 -6 -2 -62 -16 -125 -32 -134 -35 -242 -8 -284 14 -21 19 9 20 101 0 72 14 183 30 248 34 127 33 130 -7 116z"/> <path d="M1013 3065 c-25 -41 -73 -271 -73 -353 0 -137 29 -111 34 30 8 229 56 323 152 297 35 -9 96 -20 134 -24 47 -5 77 -22 92 -51 l22 -44 38 43 c21 24 27 37 13 29 -14 -8 -25 -5 -25 5 0 31 -370 96 -387 68z"/> <path d="M3239 3073 c-5 -5 -51 -13 -103 -19 -75 -9 -248 -50 -271 -64 -25 -16 45 -130 72 -119 68 27 255 86 317 98 55 12 62 20 48 56 -15 42 -45 64 -63 48z m20 -52 c22 -14 15 -21 -30 -31 -32 -7 -112 -31 -178 -52 -146 -47 -151 -47 -151 0 0 35 21 45 169 75 21 4 43 12 48 17 16 17 111 10 142 -9z"/> <path d="M3320 3049 c0 -43 31 -50 152 -36 127 15 106 34 -57 52 -71 7 -95 3 -95 -16z"/> <path d="M3740 2990 c19 -22 19 -30 1 -30 -13 0 -18 -9 -11 -20 8 -13 24 -9 43 10 38 38 40 38 41 -5 0 -19 -10 -41 -22 -49 -15 -10 -11 -26 13 -49 39 -39 73 -22 38 19 -12 15 -17 33 -10 40 32 32 -15 114 -66 114 -44 0 -48 -5 -27 -30z"/> <path d="M3860 2979 c0 -47 17 -49 76 -8 56 40 55 32 -5 -50 -27 -37 -45 -75 -38 -85 6 -10 36 21 66 68 64 99 63 102 -29 109 -58 4 -70 -1 -70 -34z"/> <path d="M4040 3001 c0 -12 -22 -57 -50 -101 -59 -94 -60 -100 -15 -101 19 0 69 -13 110 -28 71 -25 78 -24 107 16 21 28 35 34 41 19 12 -30 67 -11 67 23 0 71 150 109 206 53 47 -47 -200 -168 -254 -124 -17 15 -34 9 -58 -19 -40 -46 -45 -73 -9 -44 14 11 48 20 75 20 60 0 260 82 260 107 0 10 13 18 29 18 62 0 49 40 -23 71 -124 52 -186 59 -186 22 0 -18 -10 -33 -21 -33 -13 0 -16 17 -9 40 9 30 4 40 -22 40 -19 0 -29 -6 -22 -13 15 -15 -14 -73 -68 -135 -51 -59 -184 -46 -194 19 -8 60 67 129 140 129 79 0 68 11 -29 28 -48 9 -75 6 -75 -7z"/> <path d="M3450 2978 c-44 -10 -98 -21 -120 -25 -235 -43 -412 -114 -398 -160 18 -58 15 -57 80 -32 32 12 112 34 178 49 66 14 97 27 69 28 -29 1 -99 -12 -158 -30 -116 -34 -197 -8 -95 31 203 77 444 90 330 18 -17 -11 -6 -16 32 -17 55 0 56 2 25 37 -54 60 -37 75 22 19 124 -116 359 -79 288 45 -36 64 -92 72 -253 37z m219 -42 c50 -72 -77 -107 -187 -51 -65 34 -57 63 22 77 115 22 133 19 165 -26z"/> <path d="M5612 2895 c-32 -63 -75 -129 -95 -148 -47 -43 -47 -51 11 -137 57 -84 55 -86 111 123 64 236 51 316 -27 162z m18 -100 c-25 -126 -53 -178 -83 -153 -38 32 -34 58 24 143 62 92 76 94 59 10z"/> <path d="M2667 2900 c-212 -108 -252 -144 -235 -210 7 -28 18 -49 25 -45 7 4 100 50 207 103 176 88 193 101 174 136 -12 22 -16 52 -10 68 14 38 18 39 -161 -52z m147 -20 c4 -24 -261 -170 -334 -185 -53 -11 -5 66 59 95 45 20 76 41 70 48 -16 15 132 81 171 76 16 -3 32 -18 34 -34z"/> <path d="M1327 2860 c-46 -43 -90 -98 -97 -121 -14 -42 -13 -42 25 -6 21 20 36 40 34 43 -8 11 86 98 119 110 32 13 45 54 17 53 -8 0 -53 -35 -98 -79z"/> <path d="M591 2855 c-4 -14 -17 -56 -29 -93 -12 -37 -22 -87 -22 -109 0 -84 67 49 71 141 4 84 -5 111 -20 61z"/> <path d="M4602 2833 c-12 -15 -81 -53 -152 -85 -124 -56 -161 -88 -101 -88 16 0 34 9 41 20 7 12 21 15 31 9 11 -6 19 -2 19 10 0 11 9 21 20 21 12 0 54 21 95 46 116 71 190 39 105 -46 -22 -22 -40 -51 -39 -65 0 -14 23 2 50 35 27 33 49 52 49 42 0 -11 -45 -71 -101 -135 -176 -202 -55 -270 296 -163 119 36 118 34 66 120 -78 127 -200 232 -236 202 -28 -22 -31 -21 -20 8 23 60 -82 118 -123 69z m266 -185 c154 -160 129 -195 -160 -222 -153 -14 -181 24 -88 117 33 33 60 68 60 79 0 10 9 18 20 18 11 0 20 12 20 26 0 23 37 74 54 74 4 0 46 -41 94 -92z"/> <path d="M4793 2831 c-6 -17 13 -49 46 -77 62 -52 186 -221 209 -284 17 -46 112 49 111 110 0 19 -16 10 -41 -25 -48 -64 -65 -58 -116 41 -21 41 -71 107 -112 148 -41 40 -68 83 -61 95 7 11 5 21 -6 21 -10 0 -24 -13 -30 -29z"/> <path d="M3320 2806 c-130 -22 -360 -93 -360 -110 0 -11 16 -14 35 -6 19 8 134 40 255 71 191 49 226 72 70 45z"/> <path d="M5660 2692 c-19 -78 -23 -126 -10 -123 11 2 15 1 8 -3 -7 -4 -8 -29 -3 -54 5 -26 -1 -54 -14 -61 -16 -10 -19 1 -10 37 9 35 5 52 -11 52 -18 0 -22 -22 -13 -75 7 -41 13 -97 13 -124 0 -28 7 -41 17 -30 33 38 66 242 59 373 l-6 134 -30 -126z"/> <path d="M2775 2777 c-30 -11 -55 -30 -55 -42 0 -12 -6 -16 -13 -9 -30 31 -250 -112 -239 -155 6 -22 12 -53 12 -67 0 -17 23 -8 65 23 36 27 133 85 217 129 185 97 194 187 13 121z m85 -35 c0 -9 -27 -28 -61 -42 -33 -14 -111 -56 -173 -93 -61 -37 -117 -63 -123 -56 -21 21 27 71 107 113 44 23 103 53 130 68 57 31 120 36 120 10z"/> <path d="M5261 2694 c-27 -57 -67 -124 -88 -149 -90 -102 60 -31 192 92 66 61 67 70 11 122 -58 55 -59 55 -115 -65z m72 -58 c-65 -56 -114 -76 -77 -31 11 14 22 32 23 40 13 85 60 124 93 79 21 -29 15 -42 -39 -88z"/> <path d="M3348 2750 c-383 -67 -802 -277 -1031 -517 -126 -133 -126 -133 78 -133 446 2 986 221 1289 524 66 66 115 124 110 129 -25 24 -300 22 -446 -3z m342 -65 c-18 -30 -65 -77 -103 -105 -38 -27 -82 -62 -98 -76 -16 -15 -29 -22 -29 -15 0 6 -18 -7 -40 -29 -164 -164 -1120 -425 -1120 -306 0 22 222 220 278 248 29 15 68 39 87 55 19 16 35 21 35 11 0 -10 7 -8 15 4 8 12 83 54 166 94 129 60 231 91 529 160 22 5 101 10 176 12 l136 2 -32 -55z"/> <path d="M3937 2753 c29 -34 144 -63 187 -47 30 11 -37 41 -144 64 -62 14 -66 12 -43 -17z"/> <path d="M3851 2721 c-17 -26 10 -181 32 -181 9 0 17 45 17 100 0 92 -21 127 -49 81z"/> <path d="M2306 2634 c-140 -152 -142 -183 -6 -89 120 83 134 103 103 151 -12 19 -38 2 -97 -62z"/> <path d="M2750 2614 c-159 -84 -296 -175 -283 -188 4 -4 69 31 145 77 75 45 180 101 233 123 52 21 95 47 95 57 0 28 -22 20 -190 -69z"/> <path d="M3773 2643 c-43 -47 -42 -56 7 -69 33 -8 40 0 40 48 0 68 -3 70 -47 21z"/> <path d="M3927 2597 c-3 -77 -2 -78 34 -46 28 26 33 43 18 70 -34 64 -49 57 -52 -24z"/> <path d="M4115 2581 c98 -132 269 -206 331 -144 36 36 36 41 5 89 -18 28 -25 55 -15 62 10 6 29 -14 43 -43 l25 -55 59 67 c67 75 64 110 -3 43 l-44 -44 -58 56 c-58 56 -105 55 -58 -2 15 -19 17 -30 4 -30 -12 0 -27 9 -34 20 -32 52 -129 80 -209 62 -48 -10 -81 -10 -81 0 0 10 -9 18 -19 18 -11 0 14 -44 54 -99z m205 19 c22 -22 49 -40 59 -40 36 0 68 -83 40 -101 -21 -13 -196 25 -206 45 -2 3 -20 26 -40 50 -71 84 66 127 147 46z"/> <path d="M5376 2607 c-29 -30 -105 -81 -169 -115 l-116 -62 -2 -230 c-1 -161 -11 -255 -34 -315 -53 -135 18 -114 147 45 58 72 108 130 111 130 24 0 -4 -47 -75 -128 -46 -52 -77 -100 -69 -107 7 -8 19 -5 27 6 8 10 36 21 63 25 93 10 130 54 176 207 62 205 57 224 -27 100 -39 -58 -75 -102 -80 -97 -5 5 27 64 71 130 84 127 102 233 69 402 -16 76 -24 76 -92 9z m71 -52 c22 -82 13 -196 -19 -246 -18 -27 -25 -49 -17 -49 9 0 -2 -20 -25 -45 -22 -25 -66 -84 -97 -131 -133 -205 -236 -278 -189 -133 15 44 21 145 16 260 l-8 186 108 67 c59 36 127 81 151 100 57 46 66 44 80 -9z m-48 -518 c-21 -79 -70 -143 -124 -163 -43 -16 -46 13 -5 53 17 17 30 36 30 44 0 14 107 145 114 140 3 -2 -4 -35 -15 -74z"/> <path d="M2300 2507 c-146 -98 -162 -122 -109 -160 53 -39 117 -33 159 13 25 28 42 34 51 18 10 -16 18 -16 28 0 7 12 3 22 -10 22 -18 0 -18 7 0 29 13 15 21 59 17 97 l-6 69 -130 -88z m120 -4 c0 -56 -133 -168 -181 -153 -21 7 -39 20 -39 28 0 28 73 83 88 67 9 -8 12 -4 9 9 -8 26 59 84 98 85 14 1 25 -16 25 -36z"/> <path d="M5503 2560 c2 -98 27 -158 45 -106 9 27 3 66 -16 100 l-30 56 1 -50z"/> <path d="M343 2459 c-31 -138 -52 -446 -25 -389 71 152 103 321 77 409 l-26 89 -26 -109z"/> <path d="M3672 2522 c-21 -23 -50 -35 -69 -28 -24 8 -22 3 7 -19 35 -28 41 -28 66 7 29 42 114 51 136 14 9 -13 0 -33 -20 -45 -20 -11 -64 -46 -99 -76 -84 -73 -100 -69 -84 20 13 69 11 73 -19 43 -25 -24 -29 -47 -16 -95 l16 -63 132 88 c73 49 138 104 145 122 7 17 4 27 -6 21 -9 -6 -21 -3 -24 6 -16 42 -129 45 -165 5z"/> <path d="M3983 2533 c-18 -20 -2 -40 72 -88 119 -78 152 -31 43 59 -76 64 -85 66 -115 29z"/> <path d="M1855 2451 c16 -83 132 -159 173 -113 31 34 30 38 -26 61 -32 14 -75 42 -94 63 -46 52 -64 48 -53 -11z"/> <path d="M1144 2451 c-115 -28 -156 -55 -136 -89 9 -13 26 -8 49 15 21 21 94 46 178 59 228 38 267 -3 136 -142 -48 -50 -83 -95 -78 -100 4 -5 -5 -19 -22 -33 -24 -20 -47 -8 -130 70 -132 123 -131 87 0 -42 97 -95 103 -97 130 -60 16 21 34 32 42 25 7 -7 1 -28 -14 -46 -24 -28 -22 -36 11 -60 52 -38 69 -36 156 23 41 28 110 66 153 85 l79 34 -108 90 c-59 50 -108 104 -109 121 -3 82 -129 100 -337 50z m336 -101 c0 -5 -33 -46 -73 -91 -59 -65 -68 -85 -47 -105 19 -18 23 -18 13 0 -8 13 -2 31 12 40 15 9 46 41 69 71 l42 56 62 -52 c78 -66 77 -77 -3 -118 -36 -18 -94 -50 -129 -71 -49 -29 -68 -32 -80 -14 -27 41 -21 122 10 159 17 19 25 35 18 35 -17 0 72 95 91 98 8 1 15 -2 15 -8z"/> <path d="M3900 2462 c0 -36 24 -82 43 -82 10 0 9 18 -4 41 -21 41 -21 41 45 8 128 -65 186 -165 129 -223 -14 -14 -101 74 -118 119 -8 19 -23 35 -35 35 -28 0 -8 -35 74 -127 81 -91 101 -91 117 -3 18 95 8 114 -103 187 -95 63 -148 79 -148 45z"/> <path d="M471 2417 c-8 -31 -5 -71 9 -97 13 -24 18 -48 12 -55 -6 -6 -17 4 -24 22 -7 18 -20 33 -30 33 -32 0 -19 -50 22 -85 43 -38 51 -66 21 -84 -21 -14 -84 -134 -75 -144 21 -21 134 179 115 202 -12 14 -17 38 -11 53 5 16 2 69 -7 118 -16 83 -18 86 -32 37z"/> <path d="M1552 2422 c-32 -35 -29 -41 60 -120 138 -121 304 -146 293 -44 -5 42 -2 44 28 20 29 -24 32 -24 24 2 -6 17 -23 30 -39 30 -15 0 -36 12 -45 27 -53 84 -270 141 -321 85z m171 -30 c72 -31 157 -102 157 -131 0 -71 -223 -5 -277 81 -47 76 5 98 120 50z"/> <path d="M3503 2434 c-12 -15 -114 -75 -227 -134 -112 -59 -194 -111 -182 -115 27 -9 203 78 320 158 92 63 124 73 86 27 -33 -39 -335 -210 -372 -210 -35 0 -36 -22 -3 -67 24 -33 33 -32 142 18 63 29 111 58 105 64 -6 5 -51 -9 -101 -32 -172 -81 -165 -21 7 64 51 25 124 65 163 89 68 42 71 42 73 4 2 -21 -13 -43 -34 -50 -20 -6 -48 -26 -63 -44 -20 -24 -7 -22 56 10 80 41 82 44 67 122 -9 49 -6 88 7 101 15 15 15 21 -1 21 -11 0 -31 -12 -43 -26z"/> <path d="M4469 2438 c-13 -21 22 -57 56 -58 18 0 19 7 3 48 -14 37 -40 41 -59 10z"/> <path d="M4192 2387 c24 -103 55 -119 131 -66 l67 46 -48 -53 -48 -53 77 -85 c43 -47 98 -108 123 -136 25 -27 46 -59 45 -70 0 -11 -31 14 -68 56 -37 42 -72 68 -78 58 -7 -10 11 -37 38 -61 66 -58 62 -84 -10 -57 -32 12 -54 29 -48 38 5 10 3 15 -7 12 -22 -6 -134 55 -162 90 -55 65 48 109 112 47 82 -78 103 -65 25 16 -58 60 -73 66 -109 47 -38 -21 -39 -19 -14 12 20 24 22 40 7 55 -15 15 -25 8 -35 -22 -7 -24 -8 -49 -2 -56 7 -6 -2 -27 -19 -46 -29 -32 -26 -39 40 -90 40 -30 67 -59 61 -65 -6 -6 -38 9 -72 34 -34 25 -63 42 -65 39 -74 -116 -123 -183 -190 -255 -45 -48 -76 -98 -69 -110 67 -112 137 -174 185 -162 46 11 48 10 15 -14 -34 -25 -32 -30 22 -82 l57 -55 86 82 c47 45 79 87 72 95 -7 7 -36 -16 -64 -52 -53 -68 -115 -84 -134 -34 -12 30 4 42 209 166 39 24 77 38 83 32 7 -6 22 8 34 31 13 23 31 37 41 31 9 -6 29 7 44 27 35 51 111 -6 174 -131 58 -116 55 -129 -53 -207 -233 -167 -305 -204 -305 -156 0 13 -5 18 -12 12 -19 -19 -88 51 -88 89 0 19 17 44 39 55 36 20 170 199 157 211 -3 3 -63 -57 -133 -133 -125 -136 -127 -139 -92 -179 33 -35 33 -38 3 -27 -21 8 -34 4 -34 -11 0 -15 16 -20 42 -14 26 7 64 -4 98 -29 l55 -41 107 75 c60 42 111 83 115 92 3 9 18 17 32 17 14 0 38 14 52 31 14 17 44 40 67 51 65 31 -105 -116 -232 -201 -107 -72 -125 -121 -45 -121 37 0 131 81 118 102 -7 10 -5 17 5 14 22 -7 97 59 158 139 l50 65 -41 93 c-49 110 -38 145 11 40 42 -88 82 -74 157 54 66 112 66 113 -34 113 -47 0 -116 9 -154 20 -83 24 -94 16 -55 -40 19 -27 35 -35 43 -21 7 11 53 21 102 21 105 0 120 -44 41 -118 l-47 -45 -42 59 c-23 32 -40 62 -37 66 2 5 -7 -4 -20 -19 -19 -22 -31 -12 -64 53 -34 66 -75 104 -113 104 -4 0 -21 -25 -38 -55 -16 -30 -30 -43 -30 -28 -1 23 -7 23 -31 3 -17 -14 -37 -19 -45 -10 -8 8 -5 19 7 23 65 24 98 66 68 86 -42 29 -61 26 -48 -7 11 -29 -156 -176 -247 -218 -53 -24 -61 -58 -10 -42 30 10 29 7 -4 -20 -43 -36 -71 -41 -71 -14 0 10 -16 14 -35 10 -39 -10 -130 62 -151 119 -10 26 8 60 65 120 44 46 102 114 130 152 28 38 51 58 51 45 0 -13 13 -24 29 -24 16 0 62 -22 103 -50 40 -27 84 -50 96 -49 31 1 -50 59 -82 59 -14 0 -26 9 -26 20 0 29 9 26 138 -39 l117 -59 12 54 c7 30 18 77 25 104 12 47 11 48 -16 12 -21 -26 -34 -31 -44 -15 -8 13 -9 23 -3 23 6 0 -32 43 -85 96 -111 110 -97 164 40 164 77 0 95 -29 96 -146 0 -31 14 -71 31 -88 35 -35 62 -22 36 18 -9 14 -26 71 -37 125 -19 91 -26 101 -90 116 -79 19 -257 72 -296 88 -19 8 -22 -4 -12 -46z m119 -28 c5 -9 0 -22 -12 -29 -21 -14 -79 23 -79 51 0 19 77 0 91 -22z m89 -608 c0 -13 -184 -134 -192 -126 -9 9 154 135 176 135 9 0 16 -4 16 -9z"/> <path d="M5545 2396 c-12 -25 -29 -95 -36 -156 -8 -60 -30 -153 -49 -205 -57 -150 14 -108 98 59 42 85 59 239 23 217 -11 -7 -15 -24 -10 -37 6 -14 -4 -61 -20 -105 l-31 -79 11 100 c6 55 25 114 41 132 19 22 24 46 13 76 l-17 45 -23 -47z"/> <path d="M854 2305 c-160 -266 -159 -258 -39 -339 257 -172 270 -174 336 -44 28 56 56 97 62 92 5 -6 -5 -38 -22 -73 -18 -34 -26 -72 -19 -85 8 -13 5 -17 -8 -9 -11 8 -28 3 -35 -9 -46 -74 46 -39 131 49 97 103 90 184 -13 145 -17 -7 -27 -3 -23 9 4 12 -36 65 -88 119 -52 54 -113 134 -135 179 -54 105 -65 103 -147 -34z m131 1 c14 -30 43 -74 65 -98 22 -24 51 -58 65 -75 13 -17 39 -39 57 -49 31 -17 -50 -224 -88 -224 -40 0 -181 68 -172 83 6 10 4 16 -6 13 -32 -9 -146 65 -146 95 0 63 147 309 184 309 9 0 28 -24 41 -54z m301 -321 c5 -8 -12 -37 -39 -65 -48 -51 -63 -28 -26 41 21 40 50 51 65 24z"/> <path d="M3833 2354 c-19 -35 -71 -103 -116 -150 l-83 -87 47 -98 c51 -110 58 -113 130 -66 28 18 55 27 61 21 7 -6 -16 -25 -50 -43 -34 -18 -62 -37 -62 -42 0 -9 50 -94 74 -127 12 -17 111 90 201 214 109 153 104 164 -31 70 -57 -40 -109 -68 -115 -62 -6 6 35 40 90 76 114 73 117 79 58 132 -23 21 -71 80 -106 132 l-63 94 -35 -64z m88 -59 c21 -25 38 -53 38 -62 1 -9 20 -32 43 -51 l43 -34 -64 -54 c-36 -30 -74 -48 -86 -41 -12 8 -15 4 -7 -10 9 -14 2 -23 -17 -23 -17 0 -31 -9 -31 -20 0 -47 -121 -20 -140 31 -29 74 -29 74 74 197 109 130 99 125 147 67z m83 -312 c-23 -59 -119 -163 -151 -163 -35 0 -64 66 -34 76 12 4 33 18 47 31 20 18 119 79 148 91 3 1 -2 -15 -10 -35z"/> <path d="M4950 2388 c-44 -13 -142 -31 -217 -39 l-137 -15 12 -72 c6 -40 13 -85 15 -102 2 -16 8 11 15 60 l12 90 139 14 c82 8 149 6 163 -6 16 -13 34 -2 57 33 43 66 39 68 -59 37z"/> <path d="M3750 2348 c-33 -28 -80 -59 -105 -69 -44 -18 -62 -86 -28 -107 15 -9 95 67 192 183 50 60 16 56 -59 -7z"/> <path d="M760 2318 c-49 -33 -110 -80 -135 -103 l-45 -42 53 -57 54 -56 70 125 c38 69 82 141 99 160 46 53 5 41 -96 -27z m-25 -119 c-32 -64 -45 -75 -67 -57 -43 35 -33 73 27 105 81 43 84 40 40 -48z"/> <path d="M5014 2320 c-19 -27 -40 -38 -55 -29 -16 10 -69 -32 -149 -117 -69 -73 -132 -126 -140 -118 -9 8 -10 3 -2 -11 10 -17 0 -25 -28 -25 -23 0 -37 -8 -31 -18 6 -10 0 -23 -14 -28 -69 -25 33 -122 155 -147 220 -46 242 -41 278 68 37 112 64 310 36 265 -10 -16 -24 -72 -31 -122 -25 -195 -62 -225 -236 -194 -157 29 -177 52 -96 120 36 30 73 50 83 44 9 -6 15 -3 11 7 -3 10 50 78 117 150 l121 133 21 -54 22 -54 2 60 c2 93 -26 124 -64 70z m-195 -212 c-82 -83 -167 -160 -189 -172 -22 -11 41 61 140 160 99 99 184 177 189 172 5 -5 -58 -77 -140 -160z"/> <path d="M2041 2311 c-19 -23 -18 -38 5 -71 28 -41 30 -40 38 29 9 76 -4 89 -43 42z"/> <path d="M2116 2239 c-4 -48 3 -90 17 -101 33 -28 42 -1 32 97 -12 108 -38 110 -49 4z"/> <path d="M2200 2247 c0 -52 1 -52 40 -17 22 20 40 44 40 53 0 9 -18 17 -40 17 -30 0 -40 -13 -40 -53z"/> <path d="M3345 2121 c-146 -72 -182 -98 -173 -126 6 -19 2 -49 -8 -68 -16 -28 -22 -24 -33 28 l-13 62 -173 -59 c-95 -32 -189 -58 -209 -58 -42 0 -46 -19 -10 -67 39 -54 423 15 448 80 7 18 17 22 24 10 8 -13 65 4 152 46 138 67 213 84 90 21 -35 -18 -58 -38 -52 -45 6 -6 55 16 109 49 l97 61 33 -56 c50 -84 4 -156 -107 -164 -20 -2 -33 -9 -29 -17 5 -7 -12 -19 -36 -25 -25 -7 -45 -11 -45 -9 0 1 -21 -8 -46 -22 -35 -18 -53 -19 -74 -2 -22 18 -25 14 -15 -22 8 -30 4 -40 -12 -30 -13 8 -23 4 -23 -9 0 -13 11 -19 25 -13 14 5 66 26 115 45 50 20 118 52 151 70 34 19 91 49 127 68 59 30 63 37 37 67 -16 19 -40 64 -54 100 -25 63 -28 64 -73 35 -72 -48 -85 -35 -19 18 46 39 53 54 35 76 -13 16 -18 35 -10 42 32 33 -59 -2 -229 -86z m215 31 c0 -28 -100 -105 -100 -77 0 8 -7 6 -15 -5 -66 -90 -217 -142 -247 -86 -14 25 -14 36 -2 28 11 -7 24 -5 27 3 25 56 337 184 337 137z m-440 -250 c0 -16 -5 -23 -12 -17 -7 7 -34 4 -61 -6 -80 -31 -263 -54 -290 -37 -24 15 35 48 123 69 17 3 71 19 120 34 92 28 119 19 120 -43z"/> <path d="M1890 2161 c-6 -11 29 -30 79 -43 50 -12 91 -30 91 -38 0 -15 -80 -2 -172 27 -35 12 -57 -6 -125 -95 -95 -126 -96 -124 77 -141 l130 -13 65 119 c36 66 65 126 65 132 0 30 -194 78 -210 52z m68 -93 c143 -29 23 -196 -127 -175 -104 14 -107 21 -47 99 71 93 76 95 174 76z"/> <path d="M2900 2148 c-49 -16 -148 -41 -220 -57 -104 -22 -116 -28 -59 -29 80 -2 399 73 428 100 27 26 -43 19 -149 -14z"/> <path d="M1636 2130 c-40 -15 -103 -48 -140 -73 -36 -26 -70 -49 -74 -52 -17 -10 15 -27 120 -66 58 -21 112 -32 118 -24 46 57 120 164 120 174 0 30 -36 6 -56 -38 -44 -97 -244 -136 -244 -48 0 34 155 106 235 109 47 2 85 11 86 21 1 28 -86 27 -165 -3z"/> <path d="M361 2094 c-18 -48 -27 -133 -23 -204 6 -80 45 26 52 141 7 118 -1 135 -29 63z"/> <path d="M481 2048 c-126 -186 -131 -219 -59 -362 106 -208 127 -213 154 -38 13 82 35 185 51 229 26 75 24 89 -15 171 -52 112 -56 112 -131 0z m113 -32 c26 -29 25 -53 -12 -198 -23 -91 -42 -182 -42 -202 0 -69 -39 -35 -91 79 -58 127 -48 226 32 306 22 22 33 39 27 39 -7 0 -1 14 14 32 21 26 28 27 35 5 4 -15 21 -42 37 -61z"/> <path d="M2880 2079 c-71 -20 -164 -37 -205 -38 -85 -1 -90 -12 -34 -79 36 -43 46 -45 104 -25 57 19 58 21 11 16 -65 -8 -114 17 -86 44 11 11 56 24 100 30 45 6 106 20 137 32 68 26 159 28 144 3 -6 -10 -62 -34 -125 -54 -62 -20 -102 -39 -89 -44 24 -8 218 52 249 77 25 20 -8 79 -43 76 -18 -1 -91 -19 -163 -38z"/> <path d="M2150 2059 c18 -59 48 -99 74 -99 10 0 13 18 6 40 -9 30 -5 37 17 29 16 -7 36 -1 44 13 11 17 0 21 -39 13 -34 -6 -66 2 -86 22 -28 28 -30 27 -16 -18z"/> <path d="M632 2060 c8 -16 47 -75 86 -129 39 -54 71 -112 72 -128 0 -50 106 -116 135 -84 20 21 20 24 0 13 -26 -15 -123 45 -124 76 -1 10 15 3 36 -15 52 -47 91 -41 43 7 -22 22 -47 40 -55 40 -9 0 -27 18 -41 41 -21 33 1 27 123 -35 82 -42 144 -84 138 -94 -6 -10 -1 -12 12 -4 39 24 26 43 -57 80 -45 19 -127 66 -182 104 -56 37 -106 68 -112 68 -5 0 -27 20 -49 45 -22 25 -33 32 -25 15z"/> <path d="M2054 1963 c-65 -99 -69 -122 -11 -71 43 38 43 38 19 -7 -20 -38 -18 -45 10 -45 26 0 30 13 22 57 -7 31 -2 67 9 78 12 12 18 32 13 46 -4 13 -32 -13 -62 -58z"/> <path d="M2302 2013 c-34 -42 28 -154 84 -151 100 5 149 34 60 36 -81 2 -153 62 -117 98 43 43 262 -18 243 -68 -7 -18 3 -28 29 -28 53 0 49 23 -17 86 -64 61 -239 78 -282 27z"/> <path d="M1288 1878 c-105 -107 -107 -104 81 -137 178 -31 186 -29 231 59 39 76 39 81 6 92 -20 5 -78 27 -129 47 l-93 36 -96 -97z m142 42 c7 -11 32 -20 56 -21 80 -1 118 -45 82 -96 -39 -56 -308 -57 -308 -1 0 59 144 160 170 118z"/> <path d="M2161 1945 c1 -37 58 -85 100 -85 46 0 46 1 8 32 -32 25 -33 29 -5 21 24 -8 31 -2 23 18 -15 38 -27 37 -59 -6 -25 -33 -27 -33 -27 0 -1 19 -10 35 -21 35 -11 0 -20 -7 -19 -15z"/> <path d="M643 1862 c-103 -345 -85 -419 145 -579 150 -105 136 -111 179 82 56 252 56 257 29 291 -22 27 -21 30 7 19 19 -7 38 -2 43 11 5 14 -10 24 -37 24 -25 0 -41 -7 -36 -15 5 -8 -7 -16 -27 -16 -30 -1 -28 -5 9 -23 54 -26 54 -12 3 -196 -23 -82 -41 -166 -41 -186 0 -20 -10 -33 -23 -28 -13 5 -22 19 -19 31 2 12 -7 17 -22 11 -65 -25 -233 170 -233 270 0 194 78 361 119 257 18 -43 19 -43 20 -3 0 22 -20 61 -46 85 l-46 44 -24 -79z"/> <path d="M3285 1908 c-66 -28 -81 -56 -45 -78 11 -7 20 1 20 18 0 19 27 35 70 43 38 7 65 21 59 31 -14 23 -24 21 -104 -14z"/> <path d="M5416 1885 c-17 -19 -46 -65 -65 -102 -19 -37 -38 -62 -44 -57 -5 6 3 36 20 68 l30 58 -125 -41 c-128 -42 -272 -150 -341 -256 -19 -30 -42 -51 -50 -46 -7 5 0 -54 16 -131 l30 -140 128 126 c70 69 161 176 202 237 41 62 84 109 94 106 10 -4 49 39 85 95 67 102 78 150 20 83z m-158 -160 c-78 -131 -151 -225 -164 -212 -7 7 -19 -4 -27 -25 -16 -46 -90 -120 -112 -113 -8 3 -13 -6 -10 -20 3 -14 -8 -25 -25 -25 -53 0 -38 187 19 233 25 20 40 37 34 37 -55 0 165 159 239 172 32 6 61 14 66 19 28 28 19 -1 -20 -66z"/> <path d="M1632 1810 c-21 -39 -31 -77 -22 -85 8 -8 19 -5 23 7 5 12 28 20 53 18 24 -3 28 -1 9 4 -95 24 -28 89 74 72 75 -12 75 -12 28 -38 -59 -33 -35 -35 66 -5 105 32 97 49 -28 63 -58 6 -119 16 -135 23 -21 8 -43 -11 -68 -59z"/> <path d="M2550 1865 c-128 -12 -123 -38 11 -54 68 -7 127 -10 132 -5 15 16 -17 74 -40 71 -13 -2 -59 -7 -103 -12z"/> <path d="M3480 1757 c-137 -64 -343 -145 -457 -180 l-206 -63 13 -72 c17 -90 4 -83 126 -69 130 16 135 37 9 37 -87 0 -95 4 -95 48 0 47 41 65 250 112 17 4 35 9 40 11 6 2 17 3 25 1 8 -1 15 8 15 20 0 16 9 15 30 -2 24 -20 30 -20 30 3 1 21 5 21 20 -3 29 -44 27 -101 -2 -60 -19 27 -20 27 -12 0 5 -16 19 -28 32 -25 12 3 22 -4 22 -15 0 -28 67 -25 96 4 16 16 24 17 24 2 0 -22 -57 -55 -85 -49 -8 2 -15 -5 -15 -14 0 -9 -11 -17 -25 -17 -46 -1 -199 -48 -189 -58 5 -6 60 3 121 19 l111 29 24 -73 c12 -40 31 -82 40 -92 26 -28 22 1 -12 82 -35 84 -38 114 -10 97 11 -7 20 -30 20 -51 0 -22 9 -39 20 -39 12 0 12 19 -1 53 -22 56 -18 68 25 74 14 2 59 24 99 48 39 25 81 45 92 45 11 0 54 27 96 60 l76 61 57 -70 c82 -99 84 -95 -144 -201 -169 -79 -201 -96 -192 -105 5 -5 69 20 143 54 74 34 139 58 145 52 5 -5 -5 -16 -23 -23 -18 -7 -33 -20 -33 -30 0 -10 44 9 97 42 114 70 126 72 170 23 34 -37 -18 -125 -53 -90 -7 7 -19 -2 -26 -21 -7 -18 -63 -57 -125 -86 -62 -29 -117 -59 -123 -66 -66 -90 -209 -93 -247 -6 -26 62 -31 65 -22 19 7 -36 3 -52 -10 -43 -12 7 -21 2 -21 -11 0 -13 13 -18 28 -13 17 7 32 -4 38 -27 7 -27 23 -35 57 -29 82 15 236 95 223 116 -7 12 -2 14 11 6 23 -14 207 89 300 168 l47 39 -120 136 c-66 74 -154 185 -197 246 l-77 111 -250 -115z m276 17 c10 -52 -28 -90 -165 -159 -66 -34 -110 -65 -97 -70 14 -4 88 33 166 84 146 94 208 120 120 50 -113 -89 -304 -184 -320 -159 -9 14 -25 19 -36 12 -12 -7 -27 -4 -34 8 -21 34 -50 22 -38 -15 9 -29 8 -30 -8 -5 -41 64 -53 135 -15 90 33 -39 33 -39 22 15 -9 44 -4 55 24 56 19 1 94 32 165 69 140 74 206 81 216 24z"/> <path d="M3020 1819 c-71 -20 -163 -37 -202 -38 l-73 -1 31 -115 c17 -63 34 -119 37 -123 3 -4 95 21 204 55 205 65 276 140 201 212 -16 15 -19 8 -9 -29 11 -43 10 -45 -10 -14 -12 20 -17 49 -11 65 13 35 0 34 -168 -12z m148 -42 c55 -79 -107 -177 -294 -177 -70 0 -112 136 -47 149 24 5 97 22 163 38 66 16 126 30 134 31 7 1 27 -17 44 -41z"/> <path d="M2240 1825 c-113 -21 -73 -305 42 -305 12 0 -2 28 -31 63 -81 96 -67 208 25 204 40 -2 63 6 59 19 -9 27 -30 31 -95 19z"/> <path d="M2373 1754 c22 -139 48 -197 35 -79 -13 119 -21 115 162 85 72 -12 130 -33 145 -54 20 -27 25 -28 25 -4 0 51 -45 78 -131 78 -46 0 -121 13 -167 29 l-82 29 13 -84z"/> <path d="M1963 1785 c-23 -44 -63 -231 -63 -296 0 -66 86 -68 129 -4 52 80 93 222 80 279 -15 67 -114 81 -146 21z m113 -50 c8 -67 -72 -255 -108 -255 -34 0 -37 97 -6 210 33 120 102 147 114 45z"/> <path d="M1082 1717 c-12 -35 -22 -68 -22 -75 1 -23 79 88 80 113 0 48 -36 24 -58 -38z"/> <path d="M1850 1749 c-33 -14 -108 -31 -166 -39 -112 -14 -129 -33 -157 -172 -13 -61 4 -68 218 -90 l135 -14 0 88 c0 49 10 123 22 165 25 92 24 94 -52 62z m14 -144 c-11 -146 -10 -145 -161 -127 -148 18 -172 43 -127 135 31 66 38 70 178 77 25 1 51 8 59 16 42 43 60 8 51 -101z"/> <path d="M1168 1736 c-8 -14 -28 -46 -44 -71 -27 -43 -25 -47 32 -67 44 -15 59 -31 51 -55 -7 -23 -5 -25 7 -8 13 18 37 19 92 4 91 -26 98 -47 9 -29 -61 13 -63 12 -25 -16 22 -17 46 -26 54 -21 55 33 90 -36 101 -195 13 -188 -22 -244 -125 -200 -5 3 -35 8 -66 12 -80 11 -201 75 -206 110 -2 17 -10 45 -17 63 -8 18 -5 38 6 45 10 7 15 30 9 52 -6 22 -4 55 5 75 9 19 17 40 18 45 11 50 51 85 84 73 35 -12 35 -11 -2 17 -56 44 -62 40 -111 -74 -36 -83 -43 -128 -34 -222 13 -140 2 -127 158 -185 151 -56 122 -65 -34 -11 -61 22 -110 36 -110 32 0 -70 42 -104 123 -98 285 18 367 48 346 123 -8 30 -13 116 -11 192 4 122 1 137 -36 147 -23 6 -37 18 -32 26 6 9 27 12 47 6 31 -7 41 5 52 64 7 40 18 84 23 98 7 18 -33 31 -136 45 -80 12 -161 27 -179 35 -20 9 -39 4 -49 -12z m211 -47 c132 -15 131 -15 100 -105 -16 -43 -33 -59 -58 -54 -194 37 -298 104 -245 157 18 19 44 30 57 25 13 -6 79 -16 146 -23z"/> <path d="M2334 1661 c7 -64 3 -110 -12 -129 -19 -22 -18 -32 2 -45 46 -28 82 -28 271 5 194 34 223 60 164 148 -15 23 -19 16 -15 -29 9 -88 -308 -161 -330 -76 -7 26 -10 23 -12 -11 -5 -100 -42 -15 -42 96 0 65 -9 123 -19 129 -12 8 -15 -26 -7 -88z"/> <path d="M340 1654 c0 -155 52 -283 162 -398 56 -58 96 -90 90 -69 -7 20 -12 54 -12 75 0 21 -10 38 -22 38 -12 0 -17 -13 -11 -30 7 -16 3 -30 -7 -30 -11 0 -25 23 -32 50 -7 28 -20 50 -30 50 -10 0 -32 34 -50 75 -36 82 -61 227 -33 195 70 -81 129 -179 133 -221 8 -76 32 -84 32 -10 0 44 -19 87 -57 131 -32 36 -74 102 -95 147 -49 105 -68 104 -68 -3z"/> <path d="M2111 1556 c-46 -115 -43 -119 89 -114 66 3 120 6 120 9 0 2 -40 44 -89 93 l-89 89 -31 -77z m117 -79 c-15 -24 -83 -21 -99 4 -7 11 -1 34 12 50 27 33 110 -18 87 -54z"/> <path d="M2660 1480 c-38 -8 -106 -22 -149 -29 -105 -19 -64 -42 126 -72 166 -26 179 -21 167 60 -9 65 -22 69 -144 41z m116 -47 c6 -27 -9 -33 -80 -32 -109 2 -199 35 -106 39 33 2 78 11 100 20 52 22 79 14 86 -27z"/> <path d="M3182 1448 c-115 -36 -129 -52 -32 -37 86 14 170 43 170 59 0 15 -40 9 -138 -22z"/> <path d="M1504 1335 l3 -125 8 105 c4 58 16 105 26 105 10 0 19 9 19 20 0 11 -13 20 -30 20 -24 0 -29 -26 -26 -125z"/> <path d="M1620 1420 c28 -9 77 -16 110 -16 l60 1 -60 15 c-33 8 -82 15 -110 16 l-50 0 50 -16z"/> <path d="M2290 1419 c-50 -12 -52 -15 -13 -17 51 -2 51 -22 -9 -236 -49 -178 -166 -108 -167 99 l-1 115 61 0 c36 0 56 8 49 20 -7 11 -39 20 -71 20 l-59 0 0 -155 c0 -150 56 -245 144 -245 29 0 157 390 133 407 -4 3 -34 -1 -67 -8z"/> <path d="M4667 1285 c-131 -134 -139 -148 -103 -167 56 -30 193 -39 209 -13 9 14 1 17 -23 8 -30 -12 -32 -9 -10 17 15 18 39 27 54 21 16 -6 23 -3 17 7 -6 10 3 29 20 43 31 25 25 155 -8 210 -7 11 -76 -44 -156 -126z m153 37 c0 -71 -18 -122 -43 -122 -10 0 -38 -18 -62 -40 -45 -42 -135 -55 -135 -19 0 23 202 236 225 238 8 1 15 -25 15 -57z"/> <path d="M1800 1400 c0 -18 28 -28 65 -22 39 6 8 -41 -60 -92 -41 -31 -79 -61 -85 -68 -46 -57 -180 -91 -180 -47 0 17 -8 26 -18 20 -22 -14 -4 -91 21 -91 80 0 357 202 357 260 0 46 -33 70 -47 35 -8 -20 -10 -20 -11 0 -2 29 -42 34 -42 5z"/> <path d="M2003 1374 c-52 -56 -54 -90 -8 -155 l35 -49 13 120 c16 143 16 142 -40 84z"/> <path d="M2380 1384 c0 -23 -6 -57 -13 -77 -12 -34 -9 -33 27 3 23 22 36 48 30 58 -5 10 1 11 16 2 14 -8 98 -26 188 -39 l162 -23 6 -106 c4 -65 -4 -117 -20 -137 -16 -20 -17 -27 -3 -19 16 10 23 -6 20 -51 -3 -73 -55 -91 -191 -64 -63 12 -67 16 -32 32 28 12 12 14 -50 7 -49 -6 -138 -16 -197 -23 -257 -31 -284 -407 -28 -407 158 0 325 22 325 42 0 9 -25 12 -55 6 -30 -6 -125 -12 -211 -14 l-157 -4 -28 80 c-70 199 41 306 251 242 121 -36 361 -62 320 -33 -16 11 -70 21 -120 22 -49 1 -126 15 -170 30 -44 16 -57 24 -30 20 28 -5 100 -14 160 -21 197 -22 200 -24 198 -95 -2 -107 -46 -202 -100 -217 -43 -13 -42 -14 16 -16 88 -3 106 65 120 453 l11 305 -67 0 c-65 1 -270 43 -343 71 -26 10 -35 3 -35 -27z"/> <path d="M587 1365 c6 -19 16 -66 23 -105 23 -126 30 -135 126 -176 139 -59 184 -70 184 -45 0 11 -17 21 -38 21 -64 0 -180 58 -209 105 -75 120 -46 207 38 114 20 -22 72 -60 114 -84 55 -31 75 -54 68 -79 -5 -20 -2 -36 7 -36 69 0 25 83 -77 147 -62 38 -135 93 -161 121 -57 60 -89 67 -75 17z"/> <path d="M3005 1366 c-94 -12 -80 -39 15 -29 44 4 80 15 80 25 0 10 -7 17 -15 15 -8 -2 -44 -7 -80 -11z"/> <path d="M3640 1310 c-49 -27 -80 -49 -69 -49 26 -1 189 76 189 89 0 18 -30 8 -120 -40z"/> <path d="M4010 1269 c-66 -48 -194 -124 -285 -168 -91 -45 -165 -90 -165 -101 0 -24 34 -27 43 -4 8 18 238 134 267 134 11 0 32 16 46 35 15 19 37 35 51 35 13 0 51 25 84 55 33 30 71 55 85 55 27 0 36 37 11 43 -10 2 -71 -36 -137 -84z"/> <path d="M2840 1290 c0 -27 10 -50 22 -50 12 0 17 13 11 29 -6 17 4 39 23 50 30 17 28 20 -11 20 -35 1 -45 -10 -45 -49z"/> <path d="M3346 1292 c4 -56 -2 -60 -161 -109 -91 -29 -165 -59 -165 -67 0 -8 14 -9 32 -2 18 6 41 -1 52 -16 15 -21 17 -19 8 9 -11 32 -4 36 37 28 27 -5 45 -2 40 7 -5 8 40 31 101 50 121 39 120 37 80 108 l-28 50 4 -58z"/> <path d="M1850 1219 c-33 -32 -112 -86 -175 -120 -140 -75 -151 -119 -30 -119 47 0 105 -6 130 -13 27 -7 45 -3 45 11 0 13 -40 22 -99 22 -80 0 -98 6 -88 30 6 17 22 30 34 30 13 0 70 36 128 80 126 95 118 94 178 25 82 -96 66 -181 -38 -190 -83 -8 -82 -8 18 -12 l104 -3 -6 76 c-5 66 -101 243 -131 242 -5 0 -37 -27 -70 -59z"/> <path d="M4233 1266 c-7 -7 3 -25 22 -40 25 -20 28 -31 11 -39 -14 -5 -54 -30 -90 -54 -81 -53 -286 -153 -315 -153 -11 0 -21 -10 -21 -21 0 -12 -9 -16 -20 -9 -11 7 -20 3 -20 -8 0 -39 -144 -64 -181 -31 -18 16 -37 24 -44 18 -6 -7 -18 8 -25 32 -11 35 -18 38 -32 17 -11 -18 -17 -20 -18 -4 0 17 -17 18 -65 3 -137 -44 -409 -96 -498 -97 l-93 0 -23 -132 c-26 -152 -24 -159 53 -132 53 20 53 21 9 22 -45 2 -47 7 -33 97 17 118 3 107 164 125 172 19 393 64 406 83 17 23 119 8 130 -19 5 -15 19 -21 30 -14 11 7 20 -2 20 -20 0 -18 -9 -27 -20 -20 -12 7 -14 -2 -6 -23 8 -22 16 -26 21 -11 5 13 16 20 25 14 21 -13 292 105 464 201 69 39 155 85 191 103 36 19 65 40 65 47 0 22 -94 78 -107 65z"/> <path d="M2348 1228 c-7 -21 -30 -77 -51 -125 -46 -110 -37 -124 79 -120 l94 4 -85 8 c-99 9 -97 3 -44 142 22 60 36 113 30 118 -5 6 -16 -6 -23 -27z"/> <path d="M2857 1140 c8 -84 15 -91 63 -60 26 17 25 19 -5 20 -25 0 -35 16 -35 60 0 33 -7 60 -16 60 -8 0 -12 -36 -7 -80z"/> <path d="M501 1186 c0 -9 37 -56 81 -106 45 -49 76 -74 70 -53 -7 20 -12 43 -12 52 0 9 -31 40 -70 70 -38 29 -70 46 -69 37z"/> <path d="M3322 1178 c-60 -24 -41 -47 21 -26 26 9 54 14 62 12 8 -2 15 5 15 16 0 24 -34 24 -98 -2z"/> <path d="M4260 1119 c-49 -32 -179 -101 -287 -153 -108 -52 -189 -97 -179 -101 10 -3 83 26 163 65 79 38 152 70 162 70 10 0 30 12 45 26 66 65 202 114 225 81 21 -27 26 -27 48 0 21 25 19 34 -14 52 -54 28 -60 27 -163 -40z"/> <path d="M960 1082 c0 -35 13 -63 32 -70 26 -10 30 -3 21 33 -7 25 -13 56 -13 70 0 14 -9 25 -20 25 -11 0 -20 -26 -20 -58z"/> <path d="M4469 1099 c-38 -61 -696 -439 -765 -439 -15 0 -17 -15 -5 -45 18 -48 36 -49 131 -6 33 15 96 42 140 60 104 43 335 172 325 182 -11 11 -182 -75 -200 -100 -8 -11 -15 -13 -15 -3 0 10 -16 4 -35 -13 -63 -55 -341 -157 -315 -115 17 28 170 104 170 85 0 -8 7 -5 15 7 8 13 65 47 125 78 61 30 126 68 145 85 19 17 35 23 35 13 0 -10 7 -9 15 3 44 62 266 193 292 172 14 -13 31 -20 36 -18 52 28 -82 -69 -153 -111 -52 -31 -90 -61 -84 -66 6 -6 47 13 93 43 45 30 87 50 93 44 25 -26 -698 -415 -771 -415 -12 0 -21 -9 -21 -20 0 -35 38 -22 286 98 299 145 856 508 670 437 -17 -7 -39 -5 -49 4 -34 31 -146 59 -158 40z"/> <path d="M4322 1058 c-27 -22 -61 -35 -76 -29 -16 6 -23 2 -16 -9 7 -11 -8 -29 -34 -39 -25 -10 -37 -19 -26 -20 38 -2 -423 -241 -467 -241 -17 0 -51 60 -38 70 3 3 26 16 52 29 63 33 42 49 -24 19 -29 -14 -53 -39 -53 -56 -1 -28 -3 -28 -22 -2 -16 23 -18 19 -9 -20 11 -45 9 -44 -21 10 -18 33 -36 63 -39 67 -4 4 -32 -7 -63 -24 -63 -34 -288 -105 -311 -98 -8 3 -15 -4 -15 -15 0 -25 -13 -27 137 20 149 47 195 50 118 9 -68 -37 -69 -46 -5 -34 45 9 54 19 48 58 -2 18 47 46 81 47 21 0 18 -9 -10 -32 -31 -25 -32 -29 -5 -21 40 13 80 -29 59 -62 -41 -67 -759 -212 -764 -154 0 10 15 22 35 25 197 31 556 140 471 143 -14 1 -41 -7 -60 -17 -40 -20 -183 -57 -345 -90 -128 -26 -160 -43 -160 -86 0 -69 849 95 851 165 1 39 48 102 48 65 1 -18 10 -39 20 -46 44 -27 701 341 701 393 0 23 -3 22 -58 -25z"/> <path d="M698 1003 c22 -42 64 -93 93 -112 36 -23 46 -40 31 -50 -21 -13 194 -241 228 -241 33 0 -69 131 -137 174 -42 27 -72 54 -66 60 7 6 36 -4 65 -24 50 -33 53 -33 41 -1 -7 19 -19 70 -26 113 -8 54 -22 78 -45 78 -21 -1 -24 -6 -9 -15 13 -8 28 -45 33 -81 l11 -67 -54 34 c-116 72 -155 148 -68 135 42 -7 35 1 -32 33 -112 53 -110 54 -65 -36z"/> <path d="M2080 1019 c0 -52 7 -59 59 -59 86 0 91 30 11 77 l-70 42 0 -60z"/> <path d="M3417 1039 c-18 -19 -70 -41 -115 -49 -61 -10 -121 -50 -76 -50 88 0 274 90 243 117 -11 10 -33 2 -52 -18z"/> <path d="M1475 1045 c-53 -12 -42 -45 15 -45 28 0 50 8 50 19 0 26 -24 35 -65 26z"/> <path d="M2875 1038 c-21 -12 -35 -44 -35 -82 l0 -62 165 14 c91 8 174 24 185 36 14 15 0 17 -50 8 -220 -43 -260 -41 -260 14 0 37 15 56 55 71 42 15 46 20 15 21 -22 0 -56 -8 -75 -20z"/> <path d="M1230 979 c-46 -12 -30 -15 70 -15 152 1 245 -19 227 -49 -7 -12 -4 -16 7 -9 20 13 106 -88 106 -125 0 -12 8 -21 19 -21 10 0 30 -12 45 -26 14 -14 56 -47 93 -73 135 -94 -103 -107 -384 -20 -171 52 -332 238 -271 312 18 21 14 27 -20 27 -50 0 -53 -22 -11 -103 18 -33 27 -65 21 -71 -5 -6 -30 31 -55 82 -61 126 -129 132 -109 9 16 -102 45 -157 82 -157 15 0 60 -19 99 -42 77 -45 96 -26 31 32 -22 20 -40 46 -40 58 0 12 34 -17 75 -64 81 -93 96 -99 410 -154 160 -29 179 -28 225 2 66 43 65 47 -49 125 -55 36 -136 114 -180 172 -99 128 -208 159 -391 110z m-190 -90 c0 -16 8 -29 17 -29 9 0 27 -22 39 -50 30 -64 -42 -74 -76 -10 -12 22 -16 40 -10 40 6 0 2 17 -9 37 -20 39 -8 70 22 51 9 -6 17 -23 17 -39z"/> <path d="M1600 942 c0 -35 177 -213 254 -256 l79 -45 75 77 c91 93 91 217 0 217 -26 0 -48 -8 -48 -17 0 -10 18 -18 40 -18 73 0 55 -132 -24 -180 -42 -25 -69 -31 -77 -18 -8 12 -21 23 -31 25 -10 2 -16 9 -13 17 2 8 -7 10 -21 5 -14 -6 -64 31 -111 81 l-87 90 156 0 c85 0 151 3 146 7 -19 17 -338 30 -338 15z"/> <path d="M2092 885 c8 -30 15 -57 17 -59 2 -3 19 22 38 55 l35 59 -51 0 c-46 0 -50 -6 -39 -55z"/> <path d="M2025 688 c-58 -66 -58 -65 27 -100 89 -37 90 -37 62 67 -26 99 -30 101 -89 33z"/> <path d="M1040 689 c0 -87 253 -249 388 -249 111 0 65 44 -52 49 -91 4 -243 87 -265 145 -10 26 -7 27 19 6 16 -14 30 -19 30 -12 0 19 124 -47 175 -94 25 -22 50 -36 56 -29 20 20 -132 122 -237 159 -115 40 -114 40 -114 25z"/> <path d="M3025 675 c-47 -11 -85 -29 -85 -40 0 -11 16 -13 35 -5 19 7 64 18 100 24 36 6 65 19 65 29 0 19 0 19 -115 -8z"/> <path d="M3491 586 c-188 -62 -410 -107 -596 -121 -151 -10 -155 -12 -196 -80 -22 -39 -46 -65 -52 -59 -6 6 3 32 21 57 46 65 44 67 -83 71 -63 2 -172 14 -241 27 -172 33 -179 -4 -28 -166 53 -57 232 -63 299 -10 18 14 25 11 25 -13 0 -17 -11 -32 -23 -32 -13 0 -20 -4 -15 -9 46 -46 1022 166 1093 238 32 31 -20 24 -141 -20 -262 -95 -777 -205 -865 -185 -22 5 15 16 81 25 281 36 910 208 910 249 0 66 -52 73 -189 28z m139 -26 c-34 -54 -880 -263 -918 -226 -32 32 35 84 123 95 82 10 289 41 415 62 22 4 71 16 108 27 37 12 75 16 85 10 9 -6 17 -2 17 7 0 20 141 62 165 50 9 -4 11 -15 5 -25z m-1013 -139 c46 -12 46 -12 8 -60 -84 -104 -365 -45 -365 77 0 22 257 9 357 -17z"/> <path d="M1410 549 c100 -81 161 -98 253 -70 96 28 90 42 -25 53 -76 7 -81 5 -49 -19 33 -24 31 -26 -28 -17 -44 6 -57 14 -39 25 35 22 25 29 -82 55 l-90 21 60 -48z"/> <path d="M1895 572 c-32 -24 -22 -28 80 -37 141 -12 151 -6 55 34 -89 37 -90 37 -135 3z"/> <path d="M2530 531 l-180 -24 110 -15 c161 -22 268 -10 276 33 4 19 0 34 -10 32 -9 -1 -97 -13 -196 -26z"/> <path d="M1714 471 l-96 -46 126 -53 c92 -39 107 -49 56 -40 -38 6 -109 29 -158 50 -88 38 -227 53 -191 21 33 -31 352 -107 398 -95 25 6 115 -2 200 -18 85 -17 182 -30 215 -30 l60 0 -49 57 c-26 32 -60 86 -74 120 -26 62 -28 63 -168 63 -79 0 -161 4 -183 9 -22 5 -83 -12 -136 -38z m399 -2 c61 -13 139 -146 95 -163 -38 -14 -350 48 -448 89 l-70 30 71 32 c68 31 237 37 352 12z"/> </g> </svg> 